<?xml version="1.0" encoding="UTF-8"?>
<svg width="50px" height="30px" viewBox="0 0 50 30" version="1.1" xmlns="http://www.w3.org/2000/svg" xmlns:xlink="http://www.w3.org/1999/xlink">
    <title>tailwindcss-mark.79614a5f61617ba49a0891494521226b</title>
    <g id="Page-1" stroke="none" stroke-width="1" fill="none" fill-rule="evenodd">
        <g id="HD" transform="translate(-1045.000000, -636.000000)" fill="#FFFFFF">
            <g id="Intro" transform="translate(339.000000, 318.000000)">
                <g id="tailwindcss-mark.79614a5f61617ba49a0891494521226b" transform="translate(706.000000, 318.000000)">
                    <path d="M25,0 C18.3333333,0 14.1666667,3.33333333 12.5,10 C15,6.66666667 17.9166667,5.41666667 21.25,6.25 C23.1518519,6.725 24.5111111,8.10555556 26.0157407,9.63240741 C28.4666667,12.1203704 31.3037037,15 37.5,15 C44.1666667,15 48.3333333,11.6666667 50,5 C47.5,8.33333333 44.5833333,9.58333333 41.25,8.75 C39.3481481,8.275 37.9888889,6.89444444 36.4842593,5.36759259 C34.0333333,2.87962963 31.1962963,0 25,0 Z M12.5,15 C5.83333333,15 1.66666667,18.3333333 0,25 C2.5,21.6666667 5.41666667,20.4166667 8.75,21.25 C10.6518519,21.7259259 12.0111111,23.1055556 13.5157407,24.6324074 C15.9666667,27.1203704 18.8037037,30 25,30 C31.6666667,30 35.8333333,26.6666667 37.5,20 C35,23.3333333 32.0833333,24.5833333 28.75,23.75 C26.8481481,23.275 25.4888889,21.8944444 23.9842593,20.3675926 C21.5333333,17.8796296 18.6962963,15 12.5,15 Z" id="Shape"></path>
                </g>
            </g>
        </g>
    </g>
</svg>