<?xml version="1.0" encoding="UTF-8"?>
<svg width="35px" height="35px" viewBox="0 0 35 35" version="1.1" xmlns="http://www.w3.org/2000/svg" xmlns:xlink="http://www.w3.org/1999/xlink">
    <title>github-brands</title>
    <g id="Page-1" stroke="none" stroke-width="1" fill="none" fill-rule="evenodd">
        <g id="HD" transform="translate(-990.000000, -632.000000)" fill="#FFFFFF" fill-rule="nonzero">
            <g id="Intro" transform="translate(339.000000, 318.000000)">
                <g id="github-brands" transform="translate(651.000000, 314.000000)">
                    <path d="M11.7066532,27.4778226 C11.7066532,27.6189516 11.5443548,27.7318548 11.3397177,27.7318548 C11.1068548,27.7530242 10.9445565,27.640121 10.9445565,27.4778226 C10.9445565,27.3366935 11.1068548,27.2237903 11.3114919,27.2237903 C11.5231855,27.202621 11.7066532,27.3155242 11.7066532,27.4778226 Z M9.51209677,27.1602823 C9.46270161,27.3014113 9.60383065,27.4637097 9.81552419,27.5060484 C9.99899194,27.5766129 10.2106855,27.5060484 10.2530242,27.3649194 C10.2953629,27.2237903 10.1612903,27.0614919 9.94959677,26.9979839 C9.76612903,26.9485887 9.56149194,27.0191532 9.51209677,27.1602823 Z M12.6310484,27.0403226 C12.4264113,27.0897177 12.2852823,27.2237903 12.3064516,27.3860887 C12.327621,27.5272177 12.5110887,27.6189516 12.7227823,27.5695565 C12.9274194,27.5201613 13.0685484,27.3860887 13.047379,27.2449597 C13.0262097,27.1108871 12.8356855,27.0191532 12.6310484,27.0403226 Z M17.2741935,0 C7.48689516,0 0,7.43044355 0,17.2177419 C0,25.0433468 4.92540323,31.7399194 11.9606855,34.0967742 C12.8639113,34.2590726 13.1814516,33.7016129 13.1814516,33.2429435 C13.1814516,32.8054435 13.1602823,30.3921371 13.1602823,28.9102823 C13.1602823,28.9102823 8.22076613,29.96875 7.18346774,26.8074597 C7.18346774,26.8074597 6.37903226,24.7540323 5.22177419,24.2247984 C5.22177419,24.2247984 3.60584677,23.1169355 5.33467742,23.1381048 C5.33467742,23.1381048 7.09173387,23.2792339 8.05846774,24.9586694 C9.60383065,27.6824597 12.1935484,26.8991935 13.202621,26.4334677 C13.3649194,25.3044355 13.8235887,24.5211694 14.3316532,24.0554435 C10.3870968,23.6179435 6.40725806,23.046371 6.40725806,16.2580645 C6.40725806,14.3175403 6.94354839,13.34375 8.07258065,12.1018145 C7.8891129,11.6431452 7.28931452,9.75201613 8.25604839,7.31048387 C9.73084677,6.85181452 13.125,9.21572581 13.125,9.21572581 C14.5362903,8.82056452 16.0534274,8.61592742 17.5564516,8.61592742 C19.0594758,8.61592742 20.5766129,8.82056452 21.9879032,9.21572581 C21.9879032,9.21572581 25.3820565,6.84475806 26.8568548,7.31048387 C27.8235887,9.75907258 27.2237903,11.6431452 27.0403226,12.1018145 C28.1693548,13.3508065 28.8608871,14.3245968 28.8608871,16.2580645 C28.8608871,23.0675403 24.7046371,23.6108871 20.7600806,24.0554435 C21.4092742,24.6129032 21.9596774,25.671371 21.9596774,27.3296371 C21.9596774,29.7076613 21.9385081,32.6502016 21.9385081,33.2288306 C21.9385081,33.6875 22.2631048,34.2449597 23.1592742,34.0826613 C30.2157258,31.7399194 35,25.0433468 35,17.2177419 C35,7.43044355 27.0614919,0 17.2741935,0 Z M6.85887097,24.3377016 C6.7671371,24.4082661 6.78830645,24.5705645 6.90826613,24.7046371 C7.02116935,24.8175403 7.18346774,24.8669355 7.27520161,24.7752016 C7.36693548,24.7046371 7.34576613,24.5423387 7.22580645,24.4082661 C7.11290323,24.2953629 6.95060484,24.2459677 6.85887097,24.3377016 Z M6.09677419,23.766129 C6.04737903,23.8578629 6.11794355,23.9707661 6.25907258,24.0413306 C6.37197581,24.1118952 6.51310484,24.0907258 6.5625,23.9919355 C6.61189516,23.9002016 6.54133065,23.7872984 6.40020161,23.7167339 C6.25907258,23.6743952 6.14616935,23.6955645 6.09677419,23.766129 Z M8.38306452,26.2782258 C8.27016129,26.3699597 8.3125,26.5816532 8.47479839,26.7157258 C8.63709677,26.8780242 8.84173387,26.8991935 8.93346774,26.7862903 C9.02520161,26.6945565 8.9828629,26.4828629 8.84173387,26.3487903 C8.68649194,26.1864919 8.47479839,26.1653226 8.38306452,26.2782258 Z M7.57862903,25.2409274 C7.46572581,25.3114919 7.46572581,25.4949597 7.57862903,25.6572581 C7.69153226,25.8195565 7.88205645,25.890121 7.97379032,25.8195565 C8.08669355,25.7278226 8.08669355,25.5443548 7.97379032,25.3820565 C7.875,25.2197581 7.69153226,25.1491935 7.57862903,25.2409274 Z" id="Shape"></path>
                </g>
            </g>
        </g>
    </g>
</svg>