<?xml version="1.0" encoding="UTF-8"?>
<svg width="35px" height="35px" viewBox="0 0 35 35" version="1.1" xmlns="http://www.w3.org/2000/svg" xmlns:xlink="http://www.w3.org/1999/xlink">
    <title>digital-ocean-brands</title>
    <g id="Page-1" stroke="none" stroke-width="1" fill="none" fill-rule="evenodd">
        <g id="HD" transform="translate(-935.000000, -631.000000)" fill="#FFFFFF" fill-rule="nonzero">
            <g id="Intro" transform="translate(339.000000, 318.000000)">
                <g id="digital-ocean-brands" transform="translate(596.000000, 313.000000)">
                    <path d="M5.57521227,33.4361995 L10.7763913,33.4361995 L10.7763913,28.2420777 L5.57521227,28.2420777 L5.57521227,33.4361995 Z M1.22795815,23.8948235 L1.22795815,28.2420777 L5.57521227,28.2420777 L5.57521227,23.8948235 L1.22795815,23.8948235 Z M34.1287678,11.918703 C32.5056047,6.6822378 28.3136097,2.51141444 23.0771445,0.867079684 C11.072795,-2.88030983 0,6.04708704 0,17.4939153 L6.76082703,17.4939153 C6.76082703,10.3096544 13.8886301,4.75561381 21.4469242,7.49381934 C24.2486448,8.50300333 26.4928441,10.7472027 27.5020281,13.5418661 C30.2614054,21.0931029 24.7003075,28.2067915 17.5231039,28.220906 L17.5231039,28.2420777 L17.5019322,28.2420777 L17.5019322,35.0029047 C28.9769894,35.0029047 37.8832145,23.9371669 34.1287678,11.918703 Z M17.5231039,28.220906 L17.5231039,21.4953651 L10.7763913,21.4953651 L10.7763913,28.2420777 L17.5019322,28.2420777 L17.5019322,28.220906 L17.5231039,28.220906 Z" id="Shape"></path>
                </g>
            </g>
        </g>
    </g>
</svg>