<?xml version="1.0" encoding="UTF-8"?>
<svg width="35px" height="35px" viewBox="0 0 35 35" version="1.1" xmlns="http://www.w3.org/2000/svg" xmlns:xlink="http://www.w3.org/1999/xlink">
    <title>laravel-brands</title>
    <g id="Page-1" stroke="none" stroke-width="1" fill="none" fill-rule="evenodd">
        <g id="HD" transform="translate(-825.000000, -629.000000)" fill="#FFFFFF" fill-rule="nonzero">
            <g id="Intro" transform="translate(339.000000, 318.000000)">
                <g id="laravel-brands" transform="translate(486.000000, 311.000000)">
                    <path d="M34.9830644,7.91816286 C34.9775291,7.9022736 34.9709468,7.88674678 34.9633584,7.87167864 C34.9532849,7.84227722 34.9408118,7.81370354 34.9260578,7.78622971 C34.914647,7.76915785 34.9019438,7.7529347 34.8880534,7.73769471 C34.8725757,7.71525823 34.8556509,7.6937961 34.8373808,7.67343711 C34.8211938,7.6583981 34.800784,7.64609345 34.7831893,7.63242162 C34.7631161,7.61563293 34.7419595,7.60010659 34.7198487,7.5859374 L27.9452105,3.79747346 C27.771009,3.69978398 27.5563838,3.69978398 27.3821822,3.79747346 L20.6061365,7.58798818 L20.6061365,7.58798818 C20.5843941,7.6023009 20.5637001,7.61806133 20.5442034,7.63515599 C20.5250211,7.6476739 20.506685,7.66137384 20.4893081,7.67617148 C20.470878,7.6961619 20.4539439,7.71740748 20.4386356,7.73974549 C20.4266712,7.75615168 20.411188,7.7705071 20.4006312,7.78828048 C20.3863982,7.8159008 20.3741695,7.8444533 20.3640343,7.87372941 C20.3584041,7.88945202 20.3492548,7.90380744 20.3443283,7.92021363 C20.3314234,7.9665756 20.3247988,8.0143744 20.3246224,8.06240066 L20.3246224,15.2565173 L14.678856,18.4140263 L14.678856,4.33682713 C14.6789757,4.28855674 14.6723464,4.24049411 14.65915,4.19395651 C14.6549273,4.17755032 14.6450743,4.1631949 14.639444,4.14747229 C14.6296109,4.11830754 14.6173723,4.08996054 14.6028472,4.06270695 C14.5929942,4.04493357 14.5768071,4.03057815 14.5648428,4.01348836 C14.549365,3.99105188 14.5324403,3.96958975 14.5141702,3.94923077 C14.4966168,3.93464314 14.4782936,3.92095279 14.4592749,3.90821528 C14.4395531,3.89159435 14.4188754,3.87607463 14.3973418,3.86173106 L14.3973418,3.86173106 L7.62059234,0.0732671133 C7.44639078,-0.0244223711 7.2317656,-0.0244223711 7.05756403,0.0732671133 L0.282222116,3.86173106 L0.282222116,3.86173106 C0.260225141,3.8757019 0.239504579,3.89148253 0.220289002,3.90889887 C0.200879868,3.92141248 0.182309402,3.93511194 0.164689956,3.94991436 C0.146487103,3.96991552 0.129787827,3.99116159 0.114721194,4.01348836 C0.102053057,4.03057815 0.0865697784,4.04493357 0.0760129976,4.06270695 C0.0615910623,4.0899203 0.0495832557,4.11827803 0.0401199429,4.14747229 C0.0324332459,4.16235326 0.0256191083,4.17764455 0.0197101667,4.19327292 C0.00676259452,4.2400923 2.07995149e-06,4.28834833 2.07995149e-06,4.33682713 L2.07995149e-06,26.874838 C-0.000544941563,27.0707491 0.106841245,27.2519789 0.281518331,27.3499341 L13.829387,34.926862 C13.8595051,34.9416136 13.8908096,34.9539591 13.9229905,34.9637759 C13.93777,34.9692446 13.9518457,34.9774477 13.967329,34.9815493 C14.0618456,35.0061502 14.1613643,35.0061502 14.255881,34.9815493 C14.2699567,34.9781313 14.281921,34.9706118 14.2945892,34.9665103 C14.3285696,34.956136 14.3615409,34.9428684 14.3931191,34.926862 L27.9452105,27.3499341 C28.1198876,27.2519789 28.2272738,27.0707491 28.2267247,26.874838 L28.2267247,19.6793542 L34.7184411,16.0487998 C34.8942157,15.9502387 35.001772,15.7674159 34.9999779,15.5702858 L34.9999779,8.06103348 C35.0003445,8.01291909 34.994672,7.96493915 34.9830644,7.91816286 Z M7.3383744,1.18136889 L7.3383744,1.18136889 L12.9820294,4.33614354 L7.33767062,7.49296896 L1.69471939,4.33682713 L7.3383744,1.18136889 Z M13.5492804,5.28291773 L13.5492804,19.0449813 L10.274567,20.8763228 L7.90351407,22.2024903 L7.90351407,8.44247752 L11.1782275,6.61113596 L13.5492804,5.28291773 Z M13.5492804,33.5002066 L1.12887594,26.5576516 L1.12887594,5.2856521 L3.4999289,6.61045237 L6.77393852,8.44247752 L6.77393852,23.1519988 C6.77536801,23.1726637 6.77818919,23.1932154 6.78238395,23.2135221 C6.78406915,23.2406444 6.7878331,23.267607 6.79364451,23.2941859 L6.79364451,23.2941859 C6.80079882,23.3153743 6.80974389,23.3359521 6.82038836,23.3557091 C6.82822578,23.3792691 6.8381145,23.4021381 6.84994734,23.4240682 L6.84994734,23.4240682 C6.8629562,23.4426152 6.87705531,23.4604181 6.89217447,23.4773884 C6.90625566,23.4975609 6.92177707,23.5167486 6.9386243,23.5348101 L6.9386243,23.5348101 C6.95481137,23.5498491 6.97522114,23.5607865 6.99281578,23.5744584 C7.01203167,23.5906741 7.03224409,23.6057408 7.05334132,23.6195754 L7.05334132,23.6195754 L7.05334132,23.6195754 L13.5415388,27.1865557 L13.5492804,33.5002066 Z M14.1123087,26.2425159 L8.47780294,23.1444793 L14.3959343,19.835213 L20.8890582,16.2046587 L26.5284905,19.3580662 L22.3902325,21.6521991 L14.1123087,26.2425159 Z M27.0985567,26.5549172 L14.6774484,33.5036245 L14.6774484,27.1933916 L23.877331,22.0937992 L27.0985567,20.3062075 L27.0985567,26.5549172 Z M27.0985567,18.411292 L24.7275037,17.0899097 L21.4527903,15.2585681 L21.4527903,9.00917485 L23.8238433,10.3353423 L27.0985567,12.168051 L27.0985567,18.411292 Z M27.661585,11.2144409 L22.0172262,8.05829911 L27.661585,4.90284087 L33.3045362,8.05761552 L27.661585,11.2144409 Z M28.2246133,18.411292 L28.2246133,12.168051 L31.5063646,10.3353423 L33.8767138,9.00917485 L33.8767138,15.2565173 L33.8767138,15.2565173 L28.2246133,18.411292 Z" id="Shape"></path>
                </g>
            </g>
        </g>
    </g>
</svg>