<?xml version="1.0" encoding="UTF-8"?>
<svg width="100px" height="100px" viewBox="0 0 100 100" version="1.1" xmlns="http://www.w3.org/2000/svg" xmlns:xlink="http://www.w3.org/1999/xlink">
    <title>Group 11</title>
    <g id="Page-1" stroke="none" stroke-width="1" fill="none" fill-rule="evenodd">
        <g id="HD" transform="translate(-910.000000, -859.000000)">
            <g id="Projects" transform="translate(167.666187, 859.000000)">
                <g id="Group-11" transform="translate(742.333813, 0.000000)">
                    <circle id="Oval" fill="#FFFFFF" cx="50" cy="50" r="50"></circle>
                    <g id="code-solid" transform="translate(25.000000, 30.000000)" fill="#000000" fill-rule="nonzero">
                        <path d="M32.4075159,3.18745304 L22.4071253,38.1896016 C22.0242978,39.5177784 20.6414313,40.2834333 19.3132544,39.9084187 C17.9850775,39.5255912 17.2194226,38.1427247 17.5944373,36.8145478 L27.5948279,1.81396188 C27.9776554,0.48625377 29.3605219,-0.282526261 30.6886988,0.0968635591 C32.0168757,0.476175251 32.7825306,1.86005743 32.4075159,3.18745304 L32.4075159,3.18745304 Z M40.5172077,9.4853553 L49.2675495,18.2356971 C50.2441502,19.2122978 50.2441502,20.7904844 49.2675495,21.7670851 L40.5172077,30.5174269 C39.5406071,31.4940275 37.9624204,31.4940275 36.9858198,30.5174269 C36.0092191,29.5408262 36.0092191,27.9626396 36.9858198,26.9860389 L43.9626548,20.0013911 L36.9858198,13.0167432 C36.0092191,12.0401426 36.0092191,10.4619559 36.9858198,9.4853553 C37.9624204,8.50875465 39.5406071,8.50875465 40.5172077,9.4853553 L40.5172077,9.4853553 Z M13.0161334,13.0167432 L6.03539201,20.0013911 L13.0161334,26.9860389 C13.9927341,27.9626396 13.9927341,29.5408262 13.0161334,30.5174269 C12.0395328,31.4940275 10.4613461,31.4940275 9.4847455,30.5174269 L0.732216102,21.7670851 C-0.244072034,20.7904844 -0.244072034,19.2122978 0.732216102,18.2356971 L9.4847455,9.4853553 C10.4613461,8.50875465 12.0395328,8.50875465 13.0161334,9.4853553 C13.9927341,10.4619559 13.9927341,12.0401426 13.0161334,13.0167432 L13.0161334,13.0167432 Z" id="Shape"></path>
                    </g>
                </g>
            </g>
        </g>
    </g>
</svg>