<?xml version="1.0" encoding="UTF-8"?>
<svg width="100px" height="100px" viewBox="0 0 100 100" version="1.1" xmlns="http://www.w3.org/2000/svg" xmlns:xlink="http://www.w3.org/1999/xlink">
    <title>Group 12</title>
    <g id="Page-1" stroke="none" stroke-width="1" fill="none" fill-rule="evenodd">
        <g id="HD" transform="translate(-910.000000, -1793.000000)">
            <g id="Group-4" transform="translate(530.000000, 1793.000000)">
                <g id="Group-12" transform="translate(380.000000, 0.000000)">
                    <circle id="Oval" fill="#FFFFFF" cx="50" cy="50" r="50"></circle>
                    <g id="paper-plane-solid-2" transform="translate(20.000000, 25.000000)" fill="#1C1E27" fill-rule="nonzero">
                        <path d="M49.9625163,3.59905365 L43.7122998,44.1375671 C43.5658104,45.088186 42.99206,45.9169256 42.1526755,46.3886216 C41.6796122,46.6541582 41.1497111,46.7887332 40.6213725,46.7887332 C40.2123739,46.7887332 39.808942,46.7091015 39.4211356,46.5473185 L27.4480646,41.5569113 L22.4810957,49.0073647 C22.1002232,49.6592427 21.4654355,50.0010514 20.7818181,50.0010514 C19.6587323,50.0010514 18.7504978,49.0928169 18.7504978,47.9697311 L18.7504978,38.5768276 C18.7504978,37.8819793 18.9821464,37.206663 19.408919,36.6587925 L40.6262554,9.37464432 L11.9436214,35.1860852 L1.92276648,31.0062529 C0.823900292,30.5472526 0.0791967647,29.5120605 0.0059520403,28.2327194 C-0.0672926841,26.9533782 0.540052571,25.9162329 1.57436574,25.3253921 L45.3258811,0.412419845 C46.3698626,-0.18418285 47.6579931,-0.129298136 48.6463086,0.549729289 C49.6346241,1.22875671 50.1480696,2.41346572 49.9625163,3.59905365 Z" id="Path"></path>
                    </g>
                </g>
            </g>
        </g>
    </g>
</svg>