<?xml version="1.0" encoding="UTF-8"?>
<svg width="25px" height="25px" viewBox="0 0 25 25" version="1.1" xmlns="http://www.w3.org/2000/svg" xmlns:xlink="http://www.w3.org/1999/xlink">
    <title>circle-chevron-right-solid</title>
    <g id="Page-1" stroke="none" stroke-width="1" fill="none" fill-rule="evenodd">
        <g id="HD" transform="translate(-774.000000, -2144.000000)" fill="#1C1E27" fill-rule="nonzero">
            <g id="Group-4" transform="translate(530.000000, 1793.000000)">
                <g id="Group-3" transform="translate(80.000000, 344.000000)">
                    <g id="circle-chevron-right-solid" transform="translate(164.000000, 7.000000)">
                        <path d="M12.5,0 C5.59570312,0 0,5.59570312 0,12.5 C0,19.4042969 5.59570312,25 12.5,25 C19.4042969,25 25,19.4042969 25,12.5 C25,5.59570312 19.4042969,0 12.5,0 Z M17.5097656,13.6035156 L12.0410156,19.0722656 C11.4306641,19.6826172 10.4418945,19.6826172 9.83154297,19.0722656 C9.22119141,18.4619141 9.22119141,17.4731445 9.83154297,16.862793 L14.1992188,12.5 L9.83398438,8.13476562 C9.22363281,7.52441406 9.22363281,6.53564453 9.83398438,5.92529297 C10.4443359,5.31494141 11.4331055,5.31494141 12.043457,5.92529297 L17.512207,11.394043 C17.8173828,11.6992188 17.96875,12.0996094 17.96875,12.5 C17.96875,12.9003906 17.8173828,13.3007812 17.5097656,13.6035156 Z" id="Shape"></path>
                    </g>
                </g>
            </g>
        </g>
    </g>
</svg>