<?xml version="1.0" encoding="UTF-8"?>
<svg width="220px" height="220px" viewBox="0 0 220 220" version="1.1" xmlns="http://www.w3.org/2000/svg" xmlns:xlink="http://www.w3.org/1999/xlink">
    <title>Group 13</title>
    <g id="Page-1" stroke="none" stroke-width="1" fill="none" fill-rule="evenodd">
        <g id="HD" transform="translate(-653.000000, -1293.000000)">
            <g id="Projects" transform="translate(167.666187, 859.000000)">
                <g id="Group-2" transform="translate(400.000000, 352.666187)">
                    <g id="Group-13" transform="translate(85.333813, 81.333813)">
                        <rect id="Rectangle" fill-opacity="0" fill="#FFFFFF" x="0" y="0" width="220" height="220"></rect>
                        <g id="result" transform="translate(27.000000, 5.000000)" fill="#C99511" fill-rule="nonzero">
                            <path d="M152.6,41.3 L85.6,1.5 C83.9,0.5 81.7,0 79.4,0 C77.2,0 74.9,0.5 73.2,1.5 L6.2,41.3 C2.8,43.3 0,48.3 0,52.2 L0,159.5 C0,163.4 2.8,168.4 6.2,170.4 L73.3,210.1 C75,211.1 77.2,211.6 79.5,211.6 C81.7,211.6 84,211.1 85.7,210.1 L152.8,170.4 C156.2,168.4 159,163.4 159,159.5 L159,52.1 C158.8,48.2 156,43.2 152.6,41.3 Z M78.2,209.1 C76.7,209 75.4,208.6 74.4,208 L7.3,168.3 C4.6,166.7 2.2,162.5 2.2,159.4 L2.2,52.1 C2.2,49 4.6,44.8 7.3,43.2 L74.4,3.5 C75.4,2.9 76.8,2.5 78.2,2.4 L78.2,12.6 L78.7,12.6 C77,12.7 75.3,13.1 74,13.9 L14.9,48.9 C11.9,50.7 9.4,55 9.4,58.5 L9.4,153.1 C9.4,156.5 11.9,160.9 14.9,162.7 L74,197.7 C75.2,198.4 76.7,198.8 78.3,199 L78.3,209.1 L78.2,209.1 Z M147.1,153.1 C147.1,155.7 145,159.4 142.8,160.7 L83.7,195.7 C82.6,196.3 81.1,196.7 79.4,196.7 C77.8,196.7 76.2,196.3 75.1,195.7 L16,160.7 C13.7,159.4 11.7,155.7 11.7,153.1 L11.7,58.5 C11.7,55.9 13.8,52.2 16,50.9 L75.1,15.9 C76.2,15.3 77.7,14.9 79.4,14.9 C81,14.9 82.6,15.3 83.7,15.9 L142.8,50.9 C145.1,52.2 147.1,55.9 147.1,58.5 L147.1,153.1 Z" id="Shape"></path>
                            <path d="M71.6,54.3 L34.5,147.4 L54.7,147.4 L62.3,125.6 L96.8,125.6 L104.4,147.4 L125.4,147.4 L88.4,54.3 L71.6,54.3 Z M79.7,78.3 L90.5,108 L68.8,108 L79.6,78.3 L79.7,78.3 L79.7,78.3 Z M52.7,144.6 L47.2,144.6 L54.3,125.5 L59.5,125.5 L52.7,144.6 L52.7,144.6 Z M115.2,144.6 L104.3,115.4 L58.1,115.4 L76,68.1 L78.2,74.4 L64.8,110.8 L102.5,110.8 L82,57 L86.6,57 L121.4,144.6 L115.2,144.6 L115.2,144.6 Z" id="Shape"></path>
                        </g>
                    </g>
                </g>
            </g>
        </g>
    </g>
</svg>