<?xml version="1.0" encoding="UTF-8"?>
<svg width="226px" height="209px" viewBox="0 0 226 209" version="1.1" xmlns="http://www.w3.org/2000/svg" xmlns:xlink="http://www.w3.org/1999/xlink">
    <title>coffee-2</title>
    <g id="Page-1" stroke="none" stroke-width="1" fill="none" fill-rule="evenodd">
        <g id="HD" transform="translate(-247.000000, -1300.000000)">
            <g id="Projects" transform="translate(167.666187, 859.000000)">
                <g id="Group-2" transform="translate(0.000000, 352.666187)">
                    <g id="coffee-2" transform="translate(79.333813, 93.333813)">
                        <path d="M18.9208984,121.696289 C29.3349609,121.696289 36.7519531,115.641602 36.7519531,106.287109 L36.7519531,104.44043 L24.7333984,104.44043 C24.7333984,108.375977 22.7958984,111.40332 19.0419921,111.40332 C15.227539,111.40332 13.0175781,108.224609 13.0175781,102.291016 L13.0175781,98.4462891 C13.0175781,92.4824219 15.227539,89.3037109 19.0419921,89.3037109 C22.7958984,89.3037109 24.7333984,92.3007812 24.7333984,96.2363281 L36.7519531,96.2363281 L36.7519531,94.4501953 C36.7519531,85.0351562 29.3349609,79.0107422 18.9208984,79.0107422 C6.69042969,79.0107422 0,86.6396484 0,98.4765625 L0,102.200195 C0,114.006836 6.69042969,121.696289 18.9208984,121.696289 Z M61.243164,121.696289 C73.8974609,121.696289 80.7392578,114.037109 80.7392578,102.442383 L80.7392578,98.3857422 C80.7392578,86.7304688 73.8974609,79.0107422 61.243164,79.0107422 C48.6191406,79.0107422 41.7167968,86.6396484 41.7167968,98.3857422 L41.7167968,102.442383 C41.7167968,114.037109 48.6191406,121.696289 61.243164,121.696289 Z M61.243164,111.615234 C57.1865234,111.615234 54.734375,108.466797 54.734375,102.50293 L54.734375,98.2041016 C54.734375,92.2705078 57.1865234,89.0917969 61.243164,89.0917969 C65.2695312,89.0917969 67.7216796,92.2705078 67.7216796,98.2041016 L67.7216796,102.50293 C67.7216796,108.466797 65.2695312,111.615234 61.243164,111.615234 Z M100.235351,121 L100.235351,106.741211 L115.28125,106.741211 L115.28125,97.1748047 L100.235351,97.1748047 L100.235351,89.6064453 L116.885742,89.6064453 L116.885742,79.6767578 L87.5205078,79.6767578 L87.5205078,121 L100.235351,121 Z M135.958008,121 L135.958008,106.741211 L151.003906,106.741211 L151.003906,97.1748047 L135.958008,97.1748047 L135.958008,89.6064453 L152.608398,89.6064453 L152.608398,79.6767578 L123.243164,79.6767578 L123.243164,121 L135.958008,121 Z M188.421875,121 L188.421875,111.22168 L171.529297,111.22168 L171.529297,104.803711 L187.301758,104.803711 L187.301758,95.9638672 L171.529297,95.9638672 L171.529297,89.4550781 L188.421875,89.4550781 L188.421875,79.6767578 L158.96582,79.6767578 L158.96582,121 L188.421875,121 Z M225.446289,121 L225.446289,111.22168 L208.553711,111.22168 L208.553711,104.803711 L224.326172,104.803711 L224.326172,95.9638672 L208.553711,95.9638672 L208.553711,89.4550781 L225.446289,89.4550781 L225.446289,79.6767578 L195.990234,79.6767578 L195.990234,121 L225.446289,121 Z" id="COFFEE" fill="#FFFFFF" fill-rule="nonzero"></path>
                        <polyline id="Path-2" stroke="#FFFFFF" stroke-width="8" points="7.45703125 69 7.45703125 26.0939597 114.457031 0 221.457031 26.0939597 221.457031 69"></polyline>
                        <polyline id="Path-2" stroke="#FFFFFF" stroke-width="4" points="19.4570312 69 19.4570312 37.1675343 114.457031 14 209.457031 37.1675343 209.457031 69"></polyline>
                        <polyline id="Path-2" stroke="#FFFFFF" stroke-width="2" points="26.4570312 69 26.4570312 46.3385185 113.957031 25 201.457031 46.3385185 201.457031 69"></polyline>
                        <polyline id="Path-2" stroke="#FFFFFF" stroke-width="2" transform="translate(113.957031, 152.000000) scale(-1, 1) rotate(-180.000000) translate(-113.957031, -152.000000) " points="26.4570312 174 26.4570312 151.338518 113.957031 130 201.457031 151.338518 201.457031 174"></polyline>
                        <polyline id="Path-2" stroke="#FFFFFF" stroke-width="4" points="19.4570312 69 19.4570312 37.1675343 114.457031 14 209.457031 37.1675343 209.457031 69"></polyline>
                        <polyline id="Path-2" stroke="#FFFFFF" stroke-width="4" transform="translate(114.457031, 157.500000) scale(-1, 1) rotate(-180.000000) translate(-114.457031, -157.500000) " points="19.4570312 185 19.4570312 153.167534 114.457031 130 209.457031 153.167534 209.457031 185"></polyline>
                        <polyline id="Path-2" stroke="#FFFFFF" stroke-width="8" transform="translate(114.457031, 164.500000) scale(-1, 1) rotate(-180.000000) translate(-114.457031, -164.500000) " points="7.45703125 199 7.45703125 156.09396 114.457031 130 221.457031 156.09396 221.457031 199"></polyline>
                        <g id="2022" transform="translate(100.457031, 128.000000)" fill="#FFFFFF" fill-rule="nonzero" font-family="SFCompactText-MediumItalic, SF Compact Text" font-size="10" font-style="italic" font-weight="400">
                            <text>
                                <tspan x="0" y="10">2022</tspan>
                            </text>
                        </g>
                        <line x1="96.5477231" y1="134" x2="68.7216796" y2="134" id="Path-3" stroke="#FFFFFF"></line>
                        <line x1="155.547723" y1="134" x2="127.721679" y2="134" id="Path-3" stroke="#FFFFFF"></line>
                    </g>
                </g>
            </g>
        </g>
    </g>
</svg>