<?xml version="1.0" encoding="UTF-8"?>
<svg width="239px" height="223px" viewBox="0 0 239 223" version="1.1" xmlns="http://www.w3.org/2000/svg" xmlns:xlink="http://www.w3.org/1999/xlink">
    <title>result-3</title>
    <g id="Page-1" stroke="none" stroke-width="1" fill="none" fill-rule="evenodd">
        <g id="HD" transform="translate(-1440.000000, -1292.000000)" fill="#FFFFFF" fill-rule="nonzero">
            <g id="Projects" transform="translate(167.666187, 859.000000)">
                <g id="Group-2" transform="translate(1200.000000, 352.666187)">
                    <g id="result-3" transform="translate(72.333813, 80.333813)">
                        <path d="M182.465685,46 C185.628458,46 187.782249,44.7441034 189.059648,42.6721929 L189.298958,45.6589316 L191,45.6589316 L191,35.7551992 L182.714696,35.7551992 L182.714696,38.1394901 L188.907654,38.1394901 C188.48401,41.1421666 186.346389,43.5360202 182.465685,43.5360202 C178.10636,43.5360202 175.713259,40.0520229 175.713259,36.4883367 C175.713259,32.9246506 178.10636,29.4374657 182.465685,29.4374657 C184.474014,29.389968 186.389077,30.2723819 187.639957,31.8217566 L189.871362,30.3809819 C188.064797,28.1876893 185.331261,26.9406541 182.465685,27.0021739 C176.935681,27.0021739 173,31.1141195 173,36.4883367 C173,41.862554 176.945383,46 182.465685,46 L182.465685,46 Z" id="Path"></path>
                        <path d="M204.078616,85 L198,85 L198,96 L204.078616,96 C207.874214,96 210,94 210,90.5382166 C210,87.2961783 208.034591,85 204.078616,85 L204.078616,85 Z" id="Path"></path>
                        <polygon id="Path" points="210 43.530066 202.54914 43.530066 202.54914 37.3948558 209.189189 37.3948558 209.189189 34.9249218 202.54914 34.9249218 202.54914 29.469934 209.745086 29.469934 209.745086 27 200 27 200 46 210 46"></polygon>
                        <path d="M174,200 L190,200 L189.353535,175 C187.85697,180.287714 179.491717,193.918481 174,200 Z" id="Path"></path>
                        <path d="M31,159.501598 C31,166.599259 35.4689655,172 43.0081136,172 C50.5472617,172 55,166.599259 55,159.501598 C55,152.471047 50.5310345,147 43.0081136,147 C35.4851927,147 31,152.477438 31,159.501598 L31,159.501598 Z" id="Path"></path>
                        <path d="M134.465685,46 C137.628458,46 139.782249,44.7440824 141.059648,42.6721372 L141.298958,45.6589259 L143,45.6589259 L143,35.7550278 L134.692059,35.7550278 L134.692059,38.1393586 L140.885016,38.1393586 C140.461373,41.1420854 138.346389,43.535979 134.465685,43.535979 C130.10636,43.535979 127.713259,40.0519234 127.713259,36.4881776 C127.713259,32.9244318 130.10636,29.4371887 134.465685,29.4371887 C136.468387,29.3947138 138.376464,30.2766452 139.623787,31.8215195 L141.855192,30.3807206 C140.052152,28.1918539 137.32544,26.9451167 134.465685,27.0018561 C128.935681,27.0018561 125,31.1138705 125,36.4881776 C125,41.8624848 128.922745,46 134.465685,46 L134.465685,46 Z" id="Path"></path>
                        <polygon id="a" points="33.6457733 32.0191171 40.0220227 41.6578033 40.9747586 41.6578033 47.3542267 32.0191171 47.3542267 46 50 46 50 27 47.3542267 27 40.4983906 37.4476886 33.6457733 27 31 27 31 46 33.6457733 46"></polygon>
                        <path d="M0,0 L0,223 L239,223 L239,0 L0,0 Z M32.6751414,103.191778 C22.2052219,100.705423 16.1545077,96.3567143 16.1545077,86.4884898 C16.1545077,76.0831098 24.8419716,69.1676331 36.7860301,69.1676331 C46.3245764,69.1676331 54.700512,74.0631473 56.7174167,83.4617626 L43.0679818,86.8004904 C42.4481369,84.6261359 40.5853904,82.6190394 36.9401884,82.6190394 C33.8377521,82.6190394 31.5125307,83.9410212 31.5125307,86.4273763 C31.5125307,89.5312996 36.2432643,89.9976922 40.4312321,91.1620655 C53.6920596,94.8160104 58.1915557,99.2419155 58.1915557,107.862138 C58.1915557,117.337949 50.1271484,125.494995 36.8631092,125.494995 C27.0130347,125.494995 16.2347985,121.767071 13.9834446,110.892081 L27.7131704,106.620568 C28.0343336,109.415707 31.1239233,112.056455 36.1661851,112.056455 C40.3413064,112.056455 42.2136877,110.194101 42.2136877,108.096942 C42.2136877,104.822544 38.1027991,104.510544 32.6751414,103.191778 Z M96.8114275,109.859585 L96.8114275,124.462498 L60.5199887,124.462498 L60.5199887,70.1036348 L76.5781475,70.1036348 L76.5781475,109.859585 L96.8114275,109.859585 Z M133.568553,90.7535699 L133.568553,103.336521 L115.962388,103.336521 L115.962388,111.258762 L136.837994,111.258762 L136.837994,124.446416 L99.9106521,124.446416 L99.9106521,70.0875523 L136.051144,70.0875523 L136.051144,83.3717006 L115.962388,83.3717006 L115.962388,90.7503534 L133.568553,90.7535699 Z M174.356276,90.7535699 L174.356276,103.336521 L156.753322,103.336521 L156.753322,111.258762 L177.628929,111.258762 L177.628929,124.446416 L140.698375,124.446416 L140.698375,70.0875523 L176.842079,70.0875523 L176.842079,83.3717006 L156.753322,83.3717006 L156.753322,90.7503534 L174.356276,90.7535699 L174.356276,90.7535699 Z M167.226454,132.172451 L167.226454,146.778581 L154.508392,146.778581 L154.508392,186.547397 L138.450233,186.547397 L138.450233,146.778581 L125.735383,146.778581 L125.735383,132.172451 L167.226454,132.172451 L167.226454,132.172451 Z M106.581211,163.009044 L106.581211,132.172451 L122.63937,132.172451 L122.63937,164.408222 C122.63937,180.564705 113.325638,187.567027 98.6003064,187.567027 C83.7850491,187.567027 74.4777403,180.577571 74.4777403,164.408222 L74.4777403,132.172451 L90.5358991,132.172451 L90.5358991,163.009044 C90.5358991,169.146127 93.6383353,171.941266 98.603518,171.941266 C103.568701,171.941266 106.581211,169.146127 106.581211,163.009044 L106.581211,163.009044 Z M70.9770617,159.361532 C70.9770617,175.444036 59.3445315,187.554161 43.0583469,187.554161 C26.7721623,187.554161 15.1364204,175.437603 15.1364204,159.361532 C15.1364204,143.35944 26.7721623,131.242882 43.0583469,131.242882 C59.3445315,131.242882 70.9770617,143.35944 70.9770617,159.361532 L70.9770617,159.361532 Z M225.999315,206.644093 L15.0946692,206.644093 L15.0946692,199.78973 L167.326014,199.78973 L191.194861,164.250613 L215.050862,199.78973 L226.00895,199.78973 L225.999315,206.644093 L225.999315,206.644093 Z M209.39839,153.092572 C212.542578,158.962686 219.033285,161.748175 224.566927,159.921203 C223.922417,160.397181 223.245212,160.82713 222.540387,161.207803 C215.20502,165.148017 206.434054,163.066941 202.949434,156.563176 C199.464813,150.059412 202.583308,141.587148 209.918674,137.643718 C210.623756,137.270154 211.354691,136.9477 212.105796,136.678768 C207.532432,140.274816 206.267049,147.222458 209.39839,153.092572 L209.39839,153.092572 Z M203.739495,109.026511 L197.544257,109.026511 L197.544257,124.465715 L181.486099,124.465715 L181.486099,70.1068513 L203.745918,70.1068513 C218.789201,70.1068513 226.00253,78.1062888 226.00253,90.3032598 C226.008946,103.191778 217.478856,109.016861 203.752342,109.016861 L203.739495,109.026511 L203.739495,109.026511 Z M226.098875,56.1440213 L15.0946692,56.1440213 L15.0946692,16.2594115 L226.098875,16.2594115 L226.098875,56.1440213 Z" id="Shape"></path>
                        <polygon id="Path" points="110.678457 46 113.321543 46 113.321543 29.469934 118 29.469934 118 27 106 27 106 29.469934 110.678457 29.469934"></polygon>
                        <path d="M94.7580259,38.0203301 C96.7452755,37.1718506 98.0292046,35.10747 97.9815525,32.8370113 C97.9815525,29.5520417 95.6269765,27 91.5313848,27 L86,27 L86,46 L88.5601342,46 L88.5601342,38.6806255 L91.5313848,38.6806255 C91.7622235,38.6867138 91.9932056,38.6767882 92.2228079,38.6509123 L95.9290848,46 L99,46 L94.7580259,38.0203301 L94.7580259,38.0203301 Z M91.5313848,36.2012163 L88.5601342,36.2012163 L88.5601342,29.4728063 L91.5313848,29.4728063 C94.0229995,29.4728063 95.3466699,30.793397 95.3466699,32.8370113 C95.3466699,34.8806255 94.013656,36.2012163 91.5313848,36.2012163 Z" id="Shape"></path>
                        <path d="M68.5130003,27 C62.9553541,27 59,31.1124161 59,36.4872483 C59,41.8620805 62.9553541,46 68.5130003,46 C74.0706466,46 78,41.8557047 78,36.4872483 C78,31.1187919 74.0446459,27 68.5130003,27 Z M68.5130003,43.5357383 C64.1578857,43.5357383 61.7268218,40.0513423 61.7268218,36.4872483 C61.7268218,32.9231544 64.1578857,29.4355705 68.5130003,29.4355705 C72.868115,29.4355705 75.2991789,32.9231544 75.2991789,36.4872483 C75.2991789,40.0513423 72.868115,43.5357383 68.5130003,43.5357383 Z" id="b"></path>
                        <path d="M160.029739,27 L156.973523,27 L150,46 L152.896393,46 L154.478319,41.4406603 L162.524942,41.4406603 L164.106869,46 L167,46 L160.029739,27 L160.029739,27 Z M155.336147,38.9447437 L158.5,29.9052997 L161.631236,38.9447437 L155.336147,38.9447437 Z" id="Shape"></path>
                    </g>
                </g>
            </g>
        </g>
    </g>
</svg>