<?xml version="1.0" encoding="UTF-8"?>
<svg width="230px" height="230px" viewBox="0 0 230 230" version="1.1" xmlns="http://www.w3.org/2000/svg" xmlns:xlink="http://www.w3.org/1999/xlink">
    <title>result-2</title>
    <g id="Page-1" stroke="none" stroke-width="1" fill="none" fill-rule="evenodd">
        <g id="HD" transform="translate(-1045.000000, -1289.000000)" fill-rule="nonzero">
            <g id="Projects" transform="translate(167.666187, 859.000000)">
                <g id="Group-2" transform="translate(800.000000, 352.666187)">
                    <g id="result-2" transform="translate(77.333813, 77.333813)">
                        <g id="Group" transform="translate(26.000000, 41.000000)" fill="#FFFFFF">
                            <path d="M36.4426683,79.287183 L36.4426683,73.8862234 C32.2566861,78.0808773 28.2895789,79.8903358 21.094067,79.8903358 C14.0079926,79.8903358 8.86443283,78.0808773 5.14355979,74.3797121 C1.77835844,70.8978753 0,65.8533242 0,60.3152844 C0,50.3358465 6.83984015,42.1932831 21.3403013,42.1932831 L36.0869966,42.1932831 L36.0869966,39.0678547 C36.0869966,32.2138451 32.7217953,29.2254969 24.4592684,29.2254969 C18.4675684,29.2254969 15.704273,30.6785469 12.4758684,34.3797121 L2.54442053,24.6196025 C8.64555795,17.9026731 14.6372579,15.9835504 25.0885337,15.9835504 C42.5711651,15.9835504 51.6818322,23.4407128 51.6818322,38.0808773 L51.6818322,79.287183 L36.4426683,79.287183 Z M36.0869966,52.858122 L23.747925,52.858122 C18.1118967,52.858122 14.9929296,55.4900617 14.9929296,59.9588759 C14.9929296,64.29061 17.8656625,67.169294 23.9941592,67.169294 C28.3169382,67.169294 31.0802336,66.8128855 33.8161697,64.1809459 C35.4850907,62.6182317 36.0869966,60.0959561 36.0869966,56.2577108 L36.0869966,52.858122 L36.0869966,52.858122 Z" id="Shape"></path>
                            <path d="M82.9535813,80 C73.1315709,80 64.267138,78.9033585 56.3602828,70.9801234 L66.537965,60.7813571 C71.6815247,65.9355723 78.4119275,66.6758053 83.1998156,66.6758053 C88.5896096,66.6758053 94.2256379,64.8663468 94.2256379,60.1782042 C94.2256379,57.0527759 92.5567169,54.8869088 87.632032,54.4208362 L77.8100215,53.4612748 C66.537965,52.3920493 59.5886874,47.4571624 59.5886874,35.9424263 C59.5886874,22.9746402 70.9701814,16.0109664 83.6649247,16.0109664 C93.3774977,16.0109664 101.530587,17.6833448 107.522287,23.3310487 L97.9465109,33.0637423 C94.3624347,29.8286498 88.8358438,28.8690884 83.4460498,28.8690884 C77.2081156,28.8690884 74.581617,31.7477724 74.581617,34.8732008 C74.581617,37.148732 75.5391946,39.8080877 81.0384261,40.2741604 L90.8604365,41.2337217 C103.199508,42.4400274 109.437442,49.0472927 109.437442,59.6024674 C109.437442,73.3927347 97.7002767,80 82.9535813,80" id="Path"></path>
                            <path d="M134.854288,79.287183 C122.132186,79.287183 116.742392,70.2673064 116.742392,61.3845099 L116.742392,30.4043866 L110.148786,30.4043866 L110.148786,18.5058259 L116.742392,18.5058259 L116.742392,0 L132.337227,0 L132.337227,18.5058259 L143.363049,18.5058259 L143.363049,30.4043866 L132.337227,30.4043866 L132.337227,60.4249486 C132.337227,64.0164496 134.006148,66.0726525 137.727021,66.0726525 L143.363049,66.0726525 L143.363049,79.287183 L134.854288,79.287183 Z" id="Path"></path>
                            <path d="M169.108208,79.287183 C156.276668,79.287183 150.886874,70.2673064 150.886874,61.3845099 L150.886874,0 L166.481709,0 L166.481709,60.4249486 C166.481709,64.1535298 168.041193,66.0726525 172.0083,66.0726525 L178,66.0726525 L178,79.287183 L169.108208,79.287183 L169.108208,79.287183 Z" id="Path"></path>
                        </g>
                        <path d="M40.3571005,0 C18.1184008,0 0,18.091114 0,40.3571005 L0,230 L189.6429,230 C211.881599,230 230,211.908886 230,189.6429 L230,0 L40.3571005,0 Z M40.3571005,6.22137857 L223.805908,6.22137857 L223.805908,146.393404 L6.22137857,146.393404 L6.22137857,40.3571005 C6.22137857,21.5292443 21.5292443,6.22137857 40.3571005,6.22137857 Z" id="Shape" fill="#FFFFFF"></path>
                        <g id="Group" transform="translate(27.000000, 166.000000)" fill="#000000">
                            <polygon id="Path" points="10.6575809 0.027027027 10.6575809 1.64864865 6.24190801 1.64864865 6.24190801 14.4324324 4.41567291 14.4324324 4.41567291 1.64864865 0 1.64864865 0 0.027027027 10.6575809 0.027027027"></polygon>
                            <path d="M12.1294719,0.027027027 L13.8194208,0.027027027 L13.8194208,5.02702703 C14.3373083,4.24324324 15.0732538,3.83783784 16.6541738,3.83783784 C18.9165247,3.83783784 20.4974446,5 20.4974446,7.94594595 L20.4974446,14.4594595 L18.8074957,14.4594595 L18.8074957,7.94594595 C18.8074957,5.83783784 17.6354344,5.37837838 16.4088586,5.37837838 C14.8279387,5.37837838 13.846678,6.48648649 13.846678,7.91891892 L13.846678,14.4324324 L12.1567291,14.4324324 L12.1567291,0.027027027 L12.1294719,0.027027027 Z" id="Path"></path>
                            <path d="M30.9097104,12.8378378 C30.1737649,14.1081081 29.0562181,14.5945946 27.229983,14.5945946 C24.39523,14.5945946 22.7052811,12.7837838 22.7052811,9.86486486 L22.7052811,8.48648649 C22.7052811,5.51351351 24.1226576,3.81081081 26.8756388,3.81081081 C29.6558773,3.81081081 31.0459966,5.51351351 31.0459966,8.48648649 L31.0459966,9.56756757 L24.39523,9.56756757 L24.39523,9.86486486 C24.39523,11.6756757 25.2674617,13.0810811 27.0936968,13.0810811 C28.4565588,13.0810811 29.165247,12.6756757 29.6013629,11.9189189 L30.9097104,12.8378378 Z M24.39523,8.13513514 L29.3560477,8.13513514 C29.274276,6.37837838 28.483816,5.32432432 26.9028961,5.32432432 C25.2402044,5.32432432 24.4770017,6.37837838 24.39523,8.13513514 Z" id="Shape"></path>
                            <path d="M37.6149915,14.4324324 L42.6848382,0 L44.3747871,0 L49.4446337,14.4324324 L47.5366269,14.4324324 L46.4190801,11.1351351 L40.6950596,11.1351351 L39.5775128,14.4324324 L37.6149915,14.4324324 Z M41.2402044,9.51351351 L45.846678,9.51351351 L43.5570698,2.72972973 L41.2402044,9.51351351 Z" id="Shape"></path>
                            <path d="M56.9403748,6.43243243 C56.3679727,5.7027027 55.7683135,5.37837838 54.3236797,5.37837838 C53.0698467,5.37837838 52.2793867,5.86486486 52.2793867,6.78378378 C52.2793867,7.97297297 53.3424191,8.32432432 54.7325383,8.43243243 C56.7223169,8.56756757 58.5212947,9.13513514 58.5212947,11.5405405 C58.5212947,13.3513514 57.2674617,14.6216216 54.5689949,14.6216216 C52.4156729,14.6216216 51.2981261,13.972973 50.5076661,12.8918919 L51.7614991,12 C52.3339012,12.7567568 53.0971039,13.0540541 54.5962521,13.0540541 C56.0136286,13.0540541 56.8586031,12.5135135 56.8586031,11.5675676 C56.8586031,10.4324324 56.1771721,10.0540541 54.132879,9.89189189 C52.3611584,9.75675676 50.6166951,9.05405405 50.6166951,6.78378378 C50.6166951,5.05405405 51.8705281,3.81081081 54.3781942,3.81081081 C56.0954003,3.81081081 57.4037479,4.24324324 58.2214651,5.54054054 L56.9403748,6.43243243 L56.9403748,6.43243243 Z" id="Path"></path>
                            <path d="M66.7529813,6.43243243 C66.1805792,5.7027027 65.5809199,5.37837838 64.1362862,5.37837838 C62.8824532,5.37837838 62.0919932,5.86486486 62.0919932,6.78378378 C62.0919932,7.97297297 63.1550256,8.32432432 64.5451448,8.43243243 C66.5349233,8.56756757 68.3339012,9.13513514 68.3339012,11.5405405 C68.3339012,13.3513514 67.0800681,14.6216216 64.3816014,14.6216216 C62.2282794,14.6216216 61.1107325,13.972973 60.3202726,12.8918919 L61.5741056,12 C62.1465077,12.7567568 62.9097104,13.0540541 64.4088586,13.0540541 C65.8262351,13.0540541 66.6712095,12.5135135 66.6712095,11.5675676 C66.6712095,10.4324324 65.9897785,10.0540541 63.9454855,9.89189189 C62.1737649,9.75675676 60.4293015,9.05405405 60.4293015,6.78378378 C60.4293015,5.05405405 61.6831346,3.81081081 64.1908007,3.81081081 C65.9080068,3.81081081 67.2163543,4.24324324 68.0340716,5.54054054 L66.7529813,6.43243243 L66.7529813,6.43243243 Z" id="Path"></path>
                            <path d="M78.9097104,9.89189189 C78.9097104,12.6216216 77.5468484,14.6216216 74.5212947,14.6216216 C71.713799,14.6216216 70.132879,12.7837838 70.132879,9.89189189 L70.132879,8.51351351 C70.132879,5.54054054 71.7683135,3.83783784 74.5212947,3.83783784 C77.3015332,3.83783784 78.9097104,5.54054054 78.9097104,8.51351351 L78.9097104,9.89189189 Z M77.2197615,9.89189189 L77.2197615,8.51351351 C77.2197615,6.51351351 76.2385009,5.32432432 74.5212947,5.32432432 C72.8040886,5.32432432 71.8228279,6.54054054 71.8228279,8.51351351 L71.8228279,9.89189189 C71.8228279,11.7027027 72.5860307,13.1081081 74.5212947,13.1081081 C76.3202726,13.1081081 77.2197615,11.6486486 77.2197615,9.89189189 Z" id="Shape"></path>
                            <path d="M88.8040886,12.8378378 C88.1499148,14.0540541 86.8688245,14.5945946 85.1516184,14.5945946 C82.2623509,14.5945946 80.5996593,12.7567568 80.5996593,9.86486486 L80.5996593,8.48648649 C80.5996593,5.51351351 82.3168654,3.81081081 85.1516184,3.81081081 C86.7325383,3.81081081 88.0408859,4.37837838 88.8040886,5.43243243 L87.4684838,6.35135135 C87.0051107,5.67567568 86.1056218,5.2972973 85.1516184,5.2972973 C83.3253833,5.2972973 82.2896082,6.51351351 82.2896082,8.48648649 L82.2896082,9.86486486 C82.2896082,11.6756757 83.1345826,13.0810811 85.1516184,13.0810811 C86.132879,13.0810811 87.0596252,12.7567568 87.4957411,11.9189189 L88.8040886,12.8378378 L88.8040886,12.8378378 Z" id="Path"></path>
                            <path d="M90.6848382,0.027027027 L92.592845,0.027027027 L92.592845,1.91891892 L90.6848382,1.91891892 L90.6848382,0.027027027 L90.6848382,0.027027027 Z M90.7938671,4 L92.483816,4 L92.483816,14.4594595 L90.7938671,14.4594595 L90.7938671,4 Z" id="Shape"></path>
                            <path d="M98.9710392,8.40540541 L101.478705,8.40540541 L101.478705,7.18918919 C101.478705,5.7027027 100.770017,5.37837838 99.1345826,5.37837838 C97.8807496,5.37837838 97.1993186,5.48648649 96.5996593,6.43243243 L95.3458262,5.56756757 C96.0817717,4.35135135 97.1720613,3.83783784 99.1618399,3.83783784 C101.833049,3.83783784 103.168654,4.7027027 103.168654,7.21621622 L103.168654,14.4594595 L101.478705,14.4594595 L101.478705,13.4324324 C100.879046,14.4054054 100.170358,14.6216216 98.8074957,14.6216216 C96.3543441,14.6216216 95.0459966,13.4324324 95.0459966,11.4054054 C95.0187394,9.13513514 96.6541738,8.40540541 98.9710392,8.40540541 L98.9710392,8.40540541 Z M101.478705,9.81081081 L98.9710392,9.81081081 C97.3083475,9.81081081 96.7086882,10.3783784 96.7086882,11.4324324 C96.7086882,12.5945946 97.5536627,13.0540541 98.8074957,13.0540541 C100.361158,13.0540541 101.478705,12.7567568 101.478705,10.4324324 L101.478705,9.81081081 Z" id="Shape"></path>
                            <path d="M104.967632,4 L106.330494,4 L106.330494,1.7027027 L108.020443,1.7027027 L108.020443,4 L110.446337,4 L110.446337,5.51351351 L108.020443,5.51351351 L108.020443,10.8108108 C108.020443,12.2432432 108.183986,12.8648649 109.601363,12.8648649 L110.446337,12.8648649 L110.446337,14.4594595 L109.546848,14.4594595 C107.06644,14.4594595 106.330494,13.4054054 106.330494,11.2432432 L106.330494,5.51351351 L104.967632,5.51351351 L104.967632,4 L104.967632,4 Z" id="Path"></path>
                            <path d="M112.763203,0.027027027 L114.67121,0.027027027 L114.67121,1.91891892 L112.763203,1.91891892 L112.763203,0.027027027 Z M112.844974,4 L114.534923,4 L114.534923,14.4594595 L112.844974,14.4594595 L112.844974,4 Z" id="Shape"></path>
                            <path d="M125.846678,9.89189189 C125.846678,12.6216216 124.483816,14.6216216 121.458262,14.6216216 C118.650767,14.6216216 117.069847,12.7837838 117.069847,9.89189189 L117.069847,8.51351351 C117.069847,5.54054054 118.705281,3.83783784 121.458262,3.83783784 C124.238501,3.83783784 125.846678,5.54054054 125.846678,8.51351351 L125.846678,9.89189189 Z M124.156729,9.89189189 L124.156729,8.51351351 C124.156729,6.51351351 123.175468,5.32432432 121.458262,5.32432432 C119.741056,5.32432432 118.759796,6.54054054 118.759796,8.51351351 L118.759796,9.89189189 C118.759796,11.7027027 119.522998,13.1081081 121.458262,13.1081081 C123.25724,13.1081081 124.156729,11.6486486 124.156729,9.89189189 Z" id="Shape"></path>
                            <path d="M128.054514,4 L129.744463,4 L129.744463,5.02702703 C130.262351,4.24324324 130.998296,3.83783784 132.579216,3.83783784 C134.841567,3.83783784 136.422487,5 136.422487,7.94594595 L136.422487,14.4594595 L134.732538,14.4594595 L134.732538,7.94594595 C134.732538,5.83783784 133.560477,5.37837838 132.333901,5.37837838 C130.752981,5.37837838 129.771721,6.48648649 129.771721,7.91891892 L129.771721,14.4324324 L128.081772,14.4324324 L128.081772,4 L128.054514,4 Z" id="Path"></path>
                            <path d="M152.667802,9.89189189 C152.667802,12.6216216 151.30494,14.6216216 148.279387,14.6216216 C145.471891,14.6216216 143.890971,12.7837838 143.890971,9.89189189 L143.890971,8.51351351 C143.890971,5.54054054 145.526405,3.83783784 148.279387,3.83783784 C151.059625,3.83783784 152.667802,5.54054054 152.667802,8.51351351 L152.667802,9.89189189 Z M150.977853,9.89189189 L150.977853,8.51351351 C150.977853,6.51351351 149.996593,5.32432432 148.279387,5.32432432 C146.562181,5.32432432 145.58092,6.54054054 145.58092,8.51351351 L145.58092,9.89189189 C145.58092,11.7027027 146.344123,13.1081081 148.279387,13.1081081 C150.078365,13.1081081 150.977853,11.6486486 150.977853,9.89189189 Z" id="Shape"></path>
                            <path d="M155.311755,4 L155.311755,3.24324324 C155.311755,1.08108108 156.020443,0.027027027 158.528109,0.027027027 L159.018739,0.027027027 L159.018739,1.62162162 L158.582624,1.62162162 C157.165247,1.62162162 157.001704,2.21621622 157.001704,3.67567568 L157.001704,4 L159.018739,4 L159.018739,5.51351351 L156.974446,5.51351351 L156.974446,14.4594595 L155.284497,14.4594595 L155.284497,5.51351351 L153.921635,5.51351351 L153.921635,4 L155.311755,4 L155.311755,4 Z" id="Path"></path>
                            <path d="M8.88586031,27.1351351 C8.25894378,26.1621622 7.49574106,25.6756757 6.02385009,25.6756757 C4.68824532,25.6756757 3.97955707,26.2702703 3.97955707,27.2702703 C3.97955707,28.4054054 4.90630324,28.8918919 6.84156729,29.3783784 C9.86712095,30.1351351 11.2572402,31.2702703 11.2572402,33.8108108 C11.2572402,36.1621622 9.64906303,38 6.24190801,38 C3.67972743,38 1.90800681,37.2972973 0.626916525,35.6486486 L2.88926746,34.1081081 C3.67972743,35.0810811 4.55195911,35.5405405 6.05110733,35.5405405 C7.74105622,35.5405405 8.31345826,34.8108108 8.31345826,33.9189189 C8.31345826,32.9189189 7.71379898,32.3513514 5.34241908,31.7567568 C2.48040886,31 1.03577513,29.6486486 1.03577513,27.2702703 C1.03577513,25 2.56218058,23.2162162 6.02385009,23.2162162 C8.3407155,23.2162162 10.0851789,24 11.120954,25.5675676 L8.88586031,27.1351351 L8.88586031,27.1351351 Z" id="Path"></path>
                            <path d="M13.0834753,23.3783784 L15.7819421,23.3783784 L15.7819421,28.1621622 C16.1908007,27.6486486 16.9267462,27.1621622 18.153322,27.1621622 C20.2793867,27.1621622 22.0238501,28.1621622 22.0238501,31.2702703 L22.0238501,37.8108108 L19.3253833,37.8108108 L19.3253833,31.6756757 C19.3253833,30.0540541 18.725724,29.4594595 17.6354344,29.4594595 C16.3816014,29.4594595 15.7819421,30.2702703 15.7819421,31.6486486 L15.7819421,37.7837838 L13.0834753,37.7837838 L13.0834753,23.3783784 L13.0834753,23.3783784 Z" id="Path"></path>
                            <path d="M32.8994889,33.1891892 C32.8994889,36.0540541 31.5366269,38 28.3475298,38 C25.2947189,38 23.7955707,36.1081081 23.7955707,33.1891892 L23.7955707,31.9459459 C23.7955707,28.8108108 25.4582624,27.1891892 28.3475298,27.1891892 C31.2913118,27.1891892 32.8994889,28.8108108 32.8994889,31.9459459 L32.8994889,33.1891892 Z M30.2282794,33.1081081 L30.2282794,32.027027 C30.2282794,30.3513514 29.6831346,29.4324324 28.3475298,29.4324324 C27.011925,29.4324324 26.4667802,30.3513514 26.4667802,32.027027 L26.4667802,33.1081081 C26.4667802,34.6216216 26.8483816,35.7297297 28.3475298,35.7297297 C29.8194208,35.7297297 30.2282794,34.6216216 30.2282794,33.1081081 Z" id="Shape"></path>
                            <path d="M40.39523,30.2702703 C40.1226576,29.8648649 39.7410562,29.4864865 39.0596252,29.4864865 C38.0511073,29.4864865 37.3696763,30.2162162 37.3696763,31.6756757 L37.3696763,37.8108108 L34.6712095,37.8108108 L34.6712095,27.3513514 L37.3151618,27.3513514 L37.3151618,28.2162162 C37.669506,27.7027027 38.3781942,27.1621622 39.60477,27.1621622 C40.8586031,27.1621622 41.8126065,27.7027027 42.439523,28.7837838 L40.39523,30.2702703 L40.39523,30.2702703 Z" id="Path"></path>
                            <path d="M42.6575809,27.3513514 L44.0204429,27.3513514 L44.0204429,25.0540541 L46.6916525,25.0540541 L46.6916525,27.3513514 L48.7632027,27.3513514 L48.7632027,29.6216216 L46.6916525,29.6216216 L46.6916525,34 C46.6916525,35.0540541 46.9097104,35.4864865 47.890971,35.4864865 L48.7632027,35.4864865 L48.7632027,37.8378378 L47.6183986,37.8378378 C45.0562181,37.8378378 44.0204429,37.1351351 44.0204429,34.4324324 L44.0204429,29.6486486 L42.6575809,29.6486486 L42.6575809,27.3513514 Z" id="Path"></path>
                            <polygon id="Path" points="65.7444634 23.3783784 65.7444634 25.8648649 61.7376491 25.8648649 61.7376491 37.8108108 58.7938671 37.8108108 58.7938671 25.8648649 54.7870528 25.8648649 54.7870528 23.3783784"></polygon>
                            <path d="M73.8943782,36.2162162 C73.1584327,37.4864865 71.9318569,38 70.0238501,38 C66.8620102,38 65.3356048,35.972973 65.3356048,33.2702703 L65.3356048,31.8378378 C65.3356048,28.6756757 66.9437819,27.1621622 69.669506,27.1621622 C72.6405451,27.1621622 74.0034072,28.8648649 74.0034072,32.0540541 L74.0034072,33.2432432 L68.0068143,33.2432432 C68.0340716,34.6756757 68.4974446,35.7297297 69.9965928,35.7297297 C71.1141397,35.7297297 71.4684838,35.4054054 71.8773424,34.8378378 L73.8943782,36.2162162 L73.8943782,36.2162162 Z M68.0340716,31.3513514 L71.3321976,31.3513514 C71.2776831,30 70.7325383,29.4324324 69.6967632,29.4324324 C68.6337308,29.4324324 68.1431005,30.1621622 68.0340716,31.3513514 Z" id="Shape"></path>
                            <path d="M81.6899489,30.2702703 C81.4173765,29.8648649 81.0357751,29.4864865 80.3543441,29.4864865 C79.3458262,29.4864865 78.6643952,30.2162162 78.6643952,31.6756757 L78.6643952,37.8108108 L75.9659284,37.8108108 L75.9659284,27.3513514 L78.6098807,27.3513514 L78.6098807,28.2162162 C78.9642249,27.7027027 79.6729131,27.1621622 80.8994889,27.1621622 C82.153322,27.1621622 83.1073254,27.7027027 83.7342419,28.7837838 L81.6899489,30.2702703 L81.6899489,30.2702703 Z" id="Path"></path>
                            <path d="M93.274276,37.8108108 L90.6030664,37.8108108 L90.6030664,31.6756757 C90.6030664,30 89.9488927,29.4594595 88.9948893,29.4594595 C88.0136286,29.4594595 87.3321976,30.1621622 87.3321976,31.6486486 L87.3321976,37.7837838 L84.6337308,37.7837838 L84.6337308,27.3243243 L87.2776831,27.3243243 L87.2776831,28.1891892 C87.6865417,27.6486486 88.4497445,27.1351351 89.6218058,27.1351351 C90.8756388,27.1351351 91.911414,27.6216216 92.5655877,28.5405405 C93.2470187,27.7297297 94.2827939,27.1351351 95.5911414,27.1351351 C97.8807496,27.1351351 99.2436116,28.5135135 99.2436116,31.2432432 L99.2436116,37.7837838 L96.5451448,37.7837838 L96.5451448,31.6486486 C96.5451448,30.0810811 96,29.4324324 94.9097104,29.4324324 C93.9284497,29.4324324 93.274276,30.1351351 93.274276,31.6216216 L93.274276,37.8108108 Z" id="Path"></path>
                            <polygon id="Path" points="109.192504 36.1891892 116.143101 36.1891892 116.143101 37.8108108 107.366269 37.8108108 107.366269 23.3783784 109.165247 23.3783784 109.165247 36.1891892"></polygon>
                            <path d="M125.192504,36.2162162 C124.456559,37.4864865 123.339012,37.972973 121.512777,37.972973 C118.678024,37.972973 116.988075,36.1621622 116.988075,33.2432432 L116.988075,31.8648649 C116.988075,28.8918919 118.405451,27.1891892 121.158433,27.1891892 C123.938671,27.1891892 125.32879,28.8918919 125.32879,31.8648649 L125.32879,32.9459459 L118.678024,32.9459459 L118.678024,33.2432432 C118.678024,35.0540541 119.550256,36.4594595 121.376491,36.4594595 C122.739353,36.4594595 123.448041,36.0540541 123.884157,35.2972973 L125.192504,36.2162162 L125.192504,36.2162162 Z M118.678024,31.4864865 L123.638842,31.4864865 C123.55707,29.7297297 122.76661,28.6756757 121.18569,28.6756757 C119.550256,28.7027027 118.787053,29.7567568 118.678024,31.4864865 Z" id="Shape"></path>
                            <path d="M127.809199,27.3513514 L129.499148,27.3513514 L129.499148,28.3783784 C130.017036,27.5945946 130.752981,27.1891892 132.333901,27.1891892 C134.596252,27.1891892 136.177172,28.3513514 136.177172,31.2972973 L136.177172,37.8108108 L134.487223,37.8108108 L134.487223,31.2972973 C134.487223,29.1891892 133.315162,28.7297297 132.088586,28.7297297 C130.507666,28.7297297 129.526405,29.8378378 129.526405,31.2702703 L129.526405,37.7837838 L127.809199,37.7837838 L127.809199,27.3513514 L127.809199,27.3513514 Z" id="Path"></path>
                            <path d="M145.444634,23.3783784 L147.134583,23.3783784 L147.134583,37.8108108 L145.444634,37.8108108 L145.444634,36.8918919 C144.872232,37.6216216 143.972743,37.972973 142.582624,37.972973 C139.720613,37.972973 138.357751,35.972973 138.357751,33.2432432 L138.357751,31.8648649 C138.357751,28.8648649 139.965928,27.1891892 142.582624,27.1891892 C143.972743,27.1891892 144.872232,27.6216216 145.444634,28.4054054 L145.444634,23.3783784 Z M145.444634,33.4054054 L145.444634,31.8918919 C145.444634,29.9189189 144.463373,28.7027027 142.746167,28.7027027 C141.028961,28.7027027 140.0477,29.8918919 140.0477,31.8918919 L140.0477,33.2702703 C140.0477,35.0540541 140.947189,36.4864865 142.746167,36.4864865 C144.626917,36.4594595 145.444634,35.1351351 145.444634,33.4054054 Z" id="Shape"></path>
                            <path d="M157.546848,36.2162162 C156.810903,37.4864865 155.693356,37.972973 153.867121,37.972973 C151.032368,37.972973 149.342419,36.1621622 149.342419,33.2432432 L149.342419,31.8648649 C149.342419,28.8918919 150.759796,27.1891892 153.512777,27.1891892 C156.293015,27.1891892 157.683135,28.8918919 157.683135,31.8648649 L157.683135,32.9459459 L151.032368,32.9459459 L151.032368,33.2432432 C151.032368,35.0540541 151.9046,36.4594595 153.730835,36.4594595 C155.093697,36.4594595 155.802385,36.0540541 156.238501,35.2972973 L157.546848,36.2162162 L157.546848,36.2162162 Z M151.032368,31.4864865 L155.993186,31.4864865 C155.911414,29.7297297 155.120954,28.6756757 153.540034,28.6756757 C151.9046,28.7027027 151.141397,29.7567568 151.032368,31.4864865 Z" id="Shape"></path>
                            <path d="M165.887564,29.6216216 C165.451448,29.027027 164.906303,28.7567568 164.115843,28.7567568 C162.834753,28.7567568 161.853492,29.7297297 161.853492,31.2972973 L161.853492,37.8378378 L160.163543,37.8378378 L160.163543,27.3783784 L161.853492,27.3783784 L161.853492,28.4054054 C162.289608,27.6756757 163.025554,27.2162162 164.306644,27.2162162 C165.751278,27.2162162 166.650767,27.7027027 167.332198,28.6486486 L165.887564,29.6216216 L165.887564,29.6216216 Z" id="Path"></path>
                            <path d="M174.41908,29.8108108 C173.846678,29.0810811 173.247019,28.7567568 171.802385,28.7567568 C170.548552,28.7567568 169.758092,29.2432432 169.758092,30.1621622 C169.758092,31.3513514 170.821124,31.7027027 172.211244,31.8108108 C174.201022,31.9459459 176,32.5135135 176,34.9189189 C176,36.7297297 174.746167,38 172.0477,38 C169.894378,38 168.776831,37.3513514 167.986371,36.2702703 L169.240204,35.3783784 C169.812606,36.1351351 170.575809,36.4324324 172.074957,36.4324324 C173.492334,36.4324324 174.337308,35.8918919 174.337308,34.9459459 C174.337308,33.8108108 173.655877,33.4324324 171.611584,33.2702703 C169.839864,33.1351351 168.0954,32.4324324 168.0954,30.1621622 C168.0954,28.4324324 169.349233,27.1891892 171.856899,27.1891892 C173.574106,27.1891892 174.882453,27.6216216 175.70017,28.9189189 L174.41908,29.8108108 L174.41908,29.8108108 Z" id="Path"></path>
                        </g>
                    </g>
                </g>
            </g>
        </g>
    </g>
</svg>